<svg width="246" height="74" viewBox="0 0 246 74" fill="none" xmlns="http://www.w3.org/2000/svg">
<mask id="mask0_456_706" style="mask-type:luminance" maskUnits="userSpaceOnUse" x="0" y="0" width="50" height="74">
<path d="M50 0H0V74H50V0Z" fill="white"/>
</mask>
<g mask="url(#mask0_456_706)">
<path d="M25.9083 0.000238317C23.1091 0.00104385 20.4248 1.10075 18.4455 3.05761C16.4661 5.01446 15.3538 7.66831 15.353 10.4357V15.1763H10.5579C9.17072 15.1752 7.79693 15.4445 6.51514 15.9688C5.23336 16.4931 4.06873 17.2622 3.08788 18.232C2.10704 19.2017 1.32923 20.3532 0.798964 21.6204C0.268698 22.8877 -0.00361911 24.2459 -0.00240638 25.6173V36.0491H15.3505V45.5304H10.5554C7.7554 45.53 5.06991 46.6292 3.08954 48.5861C1.10917 50.5431 -0.00390472 53.1974 -0.00488281 55.9657V73.9946H10.5603C11.9462 73.994 13.3183 73.7236 14.5984 73.1983C15.8785 72.6735 17.0413 71.9043 18.0208 70.935C19.0001 69.9657 19.7768 68.8151 20.3063 67.5488C20.8359 66.2824 21.108 64.9259 21.1071 63.5559H21.1206V56.6681L21.0923 56.6718V12.7908L21.1157 12.7963V10.4375C21.1181 9.17979 21.6237 7.97406 22.5221 7.0835C23.4204 6.19295 24.6386 5.68991 25.9108 5.68412H44.2484V10.4375C44.2445 11.6947 43.7372 12.8992 42.8374 13.7875C41.9377 14.6759 40.7188 15.1759 39.4471 15.1782H23.2858V20.8681H39.4447C42.2439 20.8683 44.9285 19.7691 46.908 17.8125C48.8875 15.8558 49.9997 13.2019 50 10.4345V-0.000976562L25.9083 0.000238317ZM15.353 30.3585H5.75908V25.6178C5.76119 24.3586 6.26735 23.1515 7.16703 22.2601C8.06666 21.3687 9.28666 20.8656 10.5603 20.8608H15.3555L15.353 30.3585ZM15.353 63.5611C15.3509 64.818 14.8451 66.0234 13.9465 66.9125C13.0478 67.802 11.8294 68.3033 10.5579 68.3065H5.75661V55.9688C5.75777 54.7108 6.26419 53.5049 7.16451 52.6159C8.06487 51.7268 9.2854 51.2277 10.5579 51.2282H15.353V63.5611ZM23.2858 36.0485H35.3965V40.7939C35.3918 42.0509 34.8842 43.2549 33.9847 44.1431C33.0851 45.0313 31.8666 45.5316 30.5952 45.5346H23.2858V51.2282H30.5977C31.9841 51.2289 33.357 50.9595 34.6379 50.4353C35.9189 49.9112 37.0828 49.1425 38.0631 48.1734C39.0434 47.2042 39.8209 46.0535 40.3511 44.7871C40.8813 43.5207 41.1538 42.1634 41.1531 40.7927H41.158V30.3573H23.2858V36.0485Z" fill="#8FC44E"/>
</g>
<path d="M71.4545 33.25C71.2955 32.697 71.072 32.2083 70.7841 31.7841C70.4962 31.3523 70.1439 30.9886 69.7273 30.6932C69.3182 30.3902 68.8485 30.1591 68.3182 30C67.7955 29.8409 67.2159 29.7614 66.5795 29.7614C65.3902 29.7614 64.3447 30.0568 63.4432 30.6477C62.5492 31.2386 61.8523 32.0985 61.3523 33.2273C60.8523 34.3485 60.6023 35.7197 60.6023 37.3409C60.6023 38.9621 60.8485 40.3409 61.3409 41.4773C61.8333 42.6136 62.5303 43.4811 63.4318 44.0795C64.3333 44.6705 65.3977 44.9659 66.625 44.9659C67.7386 44.9659 68.6894 44.7689 69.4773 44.375C70.2727 43.9735 70.8788 43.4091 71.2955 42.6818C71.7197 41.9545 71.9318 41.0947 71.9318 40.1023L72.9318 40.25H66.9318V36.5455H76.6705V39.4773C76.6705 41.5227 76.2386 43.2803 75.375 44.75C74.5114 46.2121 73.322 47.3409 71.8068 48.1364C70.2917 48.9242 68.5568 49.3182 66.6023 49.3182C64.4205 49.3182 62.5038 48.8371 60.8523 47.875C59.2008 46.9053 57.9129 45.5303 56.9886 43.75C56.072 41.9621 55.6136 39.8409 55.6136 37.3864C55.6136 35.5 55.8864 33.8182 56.4318 32.3409C56.9848 30.8561 57.7576 29.5985 58.75 28.5682C59.7424 27.5379 60.8977 26.7538 62.2159 26.2159C63.5341 25.678 64.9621 25.4091 66.5 25.4091C67.8182 25.4091 69.0455 25.6023 70.1818 25.9886C71.3182 26.3674 72.3258 26.9053 73.2045 27.6023C74.0909 28.2992 74.8144 29.1288 75.375 30.0909C75.9356 31.0455 76.2955 32.0985 76.4545 33.25H71.4545ZM80.2756 49V31.5455H84.9688V34.5909H85.1506C85.4688 33.5076 86.0028 32.6894 86.7528 32.1364C87.5028 31.5758 88.3665 31.2955 89.3438 31.2955C89.5862 31.2955 89.8475 31.3106 90.1278 31.3409C90.4081 31.3712 90.6544 31.4129 90.8665 31.4659V35.7614C90.6392 35.6932 90.3248 35.6326 89.9233 35.5795C89.5218 35.5265 89.1544 35.5 88.821 35.5C88.1089 35.5 87.4725 35.6553 86.9119 35.9659C86.3589 36.2689 85.9195 36.6932 85.5938 37.2386C85.2756 37.7841 85.1165 38.4129 85.1165 39.125V49H80.2756ZM100.511 49.3409C98.7159 49.3409 97.1705 48.9773 95.875 48.25C94.5871 47.5152 93.5947 46.4773 92.8977 45.1364C92.2008 43.7879 91.8523 42.1932 91.8523 40.3523C91.8523 38.5568 92.2008 36.9811 92.8977 35.625C93.5947 34.2689 94.5758 33.2121 95.8409 32.4545C97.1136 31.697 98.6061 31.3182 100.318 31.3182C101.47 31.3182 102.542 31.5038 103.534 31.875C104.534 32.2386 105.405 32.7879 106.148 33.5227C106.898 34.2576 107.481 35.1818 107.898 36.2955C108.314 37.4015 108.523 38.697 108.523 40.1818V41.5114H93.7841V38.5114H103.966C103.966 37.8144 103.814 37.197 103.511 36.6591C103.208 36.1212 102.788 35.7008 102.25 35.3977C101.72 35.0871 101.102 34.9318 100.398 34.9318C99.6629 34.9318 99.0114 35.1023 98.4432 35.4432C97.8826 35.7765 97.4432 36.2273 97.125 36.7955C96.8068 37.3561 96.6439 37.9811 96.6364 38.6705V41.5227C96.6364 42.3864 96.7955 43.1326 97.1136 43.7614C97.4394 44.3902 97.8977 44.875 98.4886 45.2159C99.0795 45.5568 99.7803 45.7273 100.591 45.7273C101.129 45.7273 101.621 45.6515 102.068 45.5C102.515 45.3485 102.898 45.1212 103.216 44.8182C103.534 44.5152 103.777 44.1439 103.943 43.7045L108.42 44C108.193 45.0758 107.727 46.0152 107.023 46.8182C106.326 47.6136 105.424 48.2348 104.318 48.6818C103.22 49.1212 101.951 49.3409 100.511 49.3409ZM119.636 49.3409C117.841 49.3409 116.295 48.9773 115 48.25C113.712 47.5152 112.72 46.4773 112.023 45.1364C111.326 43.7879 110.977 42.1932 110.977 40.3523C110.977 38.5568 111.326 36.9811 112.023 35.625C112.72 34.2689 113.701 33.2121 114.966 32.4545C116.239 31.697 117.731 31.3182 119.443 31.3182C120.595 31.3182 121.667 31.5038 122.659 31.875C123.659 32.2386 124.53 32.7879 125.273 33.5227C126.023 34.2576 126.606 35.1818 127.023 36.2955C127.439 37.4015 127.648 38.697 127.648 40.1818V41.5114H112.909V38.5114H123.091C123.091 37.8144 122.939 37.197 122.636 36.6591C122.333 36.1212 121.913 35.7008 121.375 35.3977C120.845 35.0871 120.227 34.9318 119.523 34.9318C118.788 34.9318 118.136 35.1023 117.568 35.4432C117.008 35.7765 116.568 36.2273 116.25 36.7955C115.932 37.3561 115.769 37.9811 115.761 38.6705V41.5227C115.761 42.3864 115.92 43.1326 116.239 43.7614C116.564 44.3902 117.023 44.875 117.614 45.2159C118.205 45.5568 118.905 45.7273 119.716 45.7273C120.254 45.7273 120.746 45.6515 121.193 45.5C121.64 45.3485 122.023 45.1212 122.341 44.8182C122.659 44.5152 122.902 44.1439 123.068 43.7045L127.545 44C127.318 45.0758 126.852 46.0152 126.148 46.8182C125.451 47.6136 124.549 48.2348 123.443 48.6818C122.345 49.1212 121.076 49.3409 119.636 49.3409ZM135.648 38.9091V49H130.807V31.5455H135.42V34.625H135.625C136.011 33.6098 136.659 32.8068 137.568 32.2159C138.477 31.6174 139.58 31.3182 140.875 31.3182C142.087 31.3182 143.144 31.5833 144.045 32.1136C144.947 32.6439 145.648 33.4015 146.148 34.3864C146.648 35.3636 146.898 36.5303 146.898 37.8864V49H142.057V38.75C142.064 37.6818 141.792 36.8485 141.239 36.25C140.686 35.6439 139.924 35.3409 138.955 35.3409C138.303 35.3409 137.727 35.4811 137.227 35.7614C136.735 36.0417 136.348 36.4508 136.068 36.9886C135.795 37.5189 135.655 38.1591 135.648 38.9091ZM150.804 49V25.7273H166.486V29.7841H155.724V35.3295H165.679V39.3864H155.724V44.9432H166.531V49H150.804ZM173.295 55.5455C172.682 55.5455 172.106 55.4962 171.568 55.3977C171.038 55.3068 170.598 55.1894 170.25 55.0455L171.341 51.4318C171.909 51.6061 172.42 51.7008 172.875 51.7159C173.337 51.7311 173.735 51.625 174.068 51.3977C174.409 51.1705 174.686 50.7841 174.898 50.2386L175.182 49.5L168.92 31.5455H174.011L177.625 44.3636H177.807L181.455 31.5455H186.58L179.795 50.8864C179.47 51.8258 179.027 52.6439 178.466 53.3409C177.913 54.0455 177.212 54.5871 176.364 54.9659C175.515 55.3523 174.492 55.5455 173.295 55.5455ZM196.449 49.3409C194.653 49.3409 193.108 48.9773 191.812 48.25C190.525 47.5152 189.532 46.4773 188.835 45.1364C188.138 43.7879 187.79 42.1932 187.79 40.3523C187.79 38.5568 188.138 36.9811 188.835 35.625C189.532 34.2689 190.513 33.2121 191.778 32.4545C193.051 31.697 194.544 31.3182 196.256 31.3182C197.407 31.3182 198.479 31.5038 199.472 31.875C200.472 32.2386 201.343 32.7879 202.085 33.5227C202.835 34.2576 203.419 35.1818 203.835 36.2955C204.252 37.4015 204.46 38.697 204.46 40.1818V41.5114H189.722V38.5114H199.903C199.903 37.8144 199.752 37.197 199.449 36.6591C199.146 36.1212 198.725 35.7008 198.188 35.3977C197.657 35.0871 197.04 34.9318 196.335 34.9318C195.6 34.9318 194.949 35.1023 194.381 35.4432C193.82 35.7765 193.381 36.2273 193.062 36.7955C192.744 37.3561 192.581 37.9811 192.574 38.6705V41.5227C192.574 42.3864 192.733 43.1326 193.051 43.7614C193.377 44.3902 193.835 44.875 194.426 45.2159C195.017 45.5568 195.718 45.7273 196.528 45.7273C197.066 45.7273 197.559 45.6515 198.006 45.5C198.453 45.3485 198.835 45.1212 199.153 44.8182C199.472 44.5152 199.714 44.1439 199.881 43.7045L204.358 44C204.131 45.0758 203.665 46.0152 202.96 46.8182C202.263 47.6136 201.362 48.2348 200.256 48.6818C199.157 49.1212 197.888 49.3409 196.449 49.3409ZM219.128 49H213.855L221.889 25.7273H228.23L236.253 49H230.98L225.151 31.0455H224.969L219.128 49ZM218.798 39.8523H231.253V43.6932H218.798V39.8523ZM243.974 25.7273V49H239.054V25.7273H243.974Z" fill="#111827"/>
</svg>
